<svg xmlns="http://www.w3.org/2000/svg" width="750" height="375" viewBox="0 0 750 375">
<defs>
    <style>
      .cls-1 {
        fill: #fff;
      }

      .cls-1, .cls-2 {
        fill-rule: evenodd;
      }

      .cls-2 {
        fill: #c22d40;
      }
    </style>
  </defs>
  <g id="Artboard_1" data-name="Artboard 1">
    <path id="_" data-name="&lt;   /&gt;" class="cls-1" d="M1058.01,386.96V399H331.988V386.96h84V338.52l-71.4-33.04V270.2l131.88-61.04v31.92l-98.56,44.52v3.08l98.56,45.64v31.92l-47.32-21.84v42.56H756.736l93.24-199.92h28l-93.24,199.92H960.853V344.4l-47.32,21.84V334.32l98.557-45.64V285.6l-98.557-44.52V209.16L1045.41,270.2v35.28l-71.4,33.04v48.44h84Z" transform="translate(-321 -163)"/>
    <path id="ScalaWebTest" class="cls-2" d="M366.1,454.1a23.84,23.84,0,0,1,8.4,4.6l6.3-8.9a34.788,34.788,0,0,0-11.4-6.2,41.847,41.847,0,0,0-13.3-2.2q-10.4,0-17.45,5.25T331.6,461.6q0,9.7,6.2,14.4a26.382,26.382,0,0,0,7.1,4.05,97.21,97.21,0,0,0,11.7,3.4q7.7,1.851,10.85,4.1a7.3,7.3,0,0,1,3.15,6.3,7.669,7.669,0,0,1-3.35,6.5q-3.353,2.451-9.05,2.45-11.4,0-22-9.2l-7.4,8.9a42.509,42.509,0,0,0,29.1,11.3q11.2,0,18.1-5.7a18.349,18.349,0,0,0,6.9-14.85q0-9.15-5.45-13.85t-16.2-7.3q-10.75-2.6-14.05-4.85a7.383,7.383,0,0,1-3.3-6.5,7.019,7.019,0,0,1,3.3-6.35,15.485,15.485,0,0,1,8.45-2.1A32.369,32.369,0,0,1,366.1,454.1ZM441.7,504l-6.6-7.2q-6.6,6.8-14.05,6.8a17.416,17.416,0,0,1-17.65-17.55,15.422,15.422,0,0,1,5.15-12,17.531,17.531,0,0,1,12.15-4.65q7,0,13.9,6l6.6-8.1a27.615,27.615,0,0,0-20.3-8.3,29.029,29.029,0,0,0-20.35,7.65q-8.352,7.65-8.35,19.85t8,19.75a26.858,26.858,0,0,0,19.1,7.55q12.7,0,22.4-9.8h0Zm33.1,9.8a22.239,22.239,0,0,0,9.95-2.45,21.307,21.307,0,0,0,8.15-7.05V513h11.2V459.8H492.9V469q-6.8-10-17.3-10a25.388,25.388,0,0,0-18.2,7.4q-7.7,7.4-7.7,19.8t7.5,20a23.938,23.938,0,0,0,17.6,7.6h0Zm-9.1-39.9a15.241,15.241,0,0,1,11.5-5.1,14.634,14.634,0,0,1,11.3,5.1,18.265,18.265,0,0,1,4.6,12.7,17.363,17.363,0,0,1-4.6,12.45,14.855,14.855,0,0,1-11.2,4.85,15.9,15.9,0,0,1-11.5-4.8,16.654,16.654,0,0,1-4.9-12.45A17.879,17.879,0,0,1,465.7,473.9ZM541.8,501a5.367,5.367,0,0,1-5,2.5q-6,0-6-8V443.1H519.6v53.7q0,8.4,4.35,12.7t11.55,4.3q7.2,0,11.2-4.6ZM576,513.8a22.236,22.236,0,0,0,9.95-2.45,21.307,21.307,0,0,0,8.15-7.05V513h11.2V459.8H594.1V469q-6.8-10-17.3-10a25.388,25.388,0,0,0-18.2,7.4q-7.7,7.4-7.7,19.8t7.5,20a23.938,23.938,0,0,0,17.6,7.6h0Zm-9.1-39.9a15.243,15.243,0,0,1,11.5-5.1,14.633,14.633,0,0,1,11.3,5.1,18.265,18.265,0,0,1,4.6,12.7,17.363,17.363,0,0,1-4.6,12.45,14.853,14.853,0,0,1-11.2,4.85,15.9,15.9,0,0,1-11.5-4.8,16.654,16.654,0,0,1-4.9-12.45A17.879,17.879,0,0,1,566.9,473.9Zm130.7,12.3q0,7.8-3.5,12.05t-9.75,4.25q-6.25,0-9.55-4.25t-3.3-12.05l-0.1-43.1H659.6l-0.1,43.1q0,7.8-3.3,12.05t-9.55,4.25q-6.25,0-9.7-4.25T633.5,486.2V443.1H622v43.1q0,13.1,6.45,20.35t18.3,7.25a22.035,22.035,0,0,0,18.75-9.4q6.6,9.4,18.65,9.4t18.5-7.25q6.45-7.25,6.45-20.35V443.1H697.6v43.1Zm39.3-24.15a26.168,26.168,0,0,0-10.4,9.5,26.781,26.781,0,0,0-4.2,14.95q0,12.3,8.1,19.8a27.559,27.559,0,0,0,19.4,7.5q12.9,0,22.4-9.8l-6.6-7.3a18.326,18.326,0,0,1-14.75,7q-8.951,0-14.15-6.4L775.5,481l-0.1-.2a19.888,19.888,0,0,0-7.3-15.75Q760.9,459,750,459A29.3,29.3,0,0,0,736.9,462.05Zm1.65,11.85a18.253,18.253,0,0,1,12.05-4.6q8.7,0,12.1,6.6l-29.5,12.7a12.774,12.774,0,0,1-.1-1.9Q733.1,478.5,738.549,473.9ZM798,469.1V438.8H786.8V513H798v-8q8,8.8,18.05,8.8t17.6-7.7q7.549-7.7,7.55-20t-7.6-19.7a25.29,25.29,0,0,0-18.3-7.4q-10.7,0-17.3,10.1h0Zm4.4,4.75a14.693,14.693,0,0,1,11.3-5.05,15.315,15.315,0,0,1,11.5,5.05,17.7,17.7,0,0,1,4.8,12.7A16.662,16.662,0,0,1,825.1,499a15.905,15.905,0,0,1-11.5,4.8,14.851,14.851,0,0,1-11.2-4.85,17.355,17.355,0,0,1-4.6-12.45A18.074,18.074,0,0,1,802.4,473.85Zm83.1-20.55a49.863,49.863,0,0,1,10.75,3.2,37.649,37.649,0,0,1,8.65,4.6l6.6-9.4q-4.9-4.4-13.85-7.35a57.309,57.309,0,0,0-36.3,0q-8.951,2.95-13.85,7.35l6.6,9.4,2.4-1.5a41.528,41.528,0,0,1,7.3-3.55,46.637,46.637,0,0,1,9.9-2.75V513h11.8V453.3Zm46.8,8.75a26.168,26.168,0,0,0-10.4,9.5,26.781,26.781,0,0,0-4.2,14.95q0,12.3,8.1,19.8a27.559,27.559,0,0,0,19.4,7.5q12.9,0,22.4-9.8l-6.6-7.3a18.326,18.326,0,0,1-14.75,7q-8.951,0-14.15-6.4L970.9,481l-0.1-.2a19.888,19.888,0,0,0-7.3-15.75Q956.3,459,945.4,459A29.3,29.3,0,0,0,932.3,462.05Zm1.65,11.85A18.253,18.253,0,0,1,946,469.3q8.7,0,12.1,6.6l-29.5,12.7a12.774,12.774,0,0,1-.1-1.9Q928.5,478.5,933.948,473.9Zm80.752,12a31.725,31.725,0,0,0-5.05-2.8q-2.355-1-4.85-1.8t-5.752-1.6A25.109,25.109,0,0,1,994,478a3.972,3.972,0,0,1-2.6-3.8,4.716,4.716,0,0,1,2.5-4.35,12.865,12.865,0,0,1,6.5-1.45,25.094,25.094,0,0,1,14.1,4.3l4.2-8.3a31.119,31.119,0,0,0-17.4-5.4q-9.2,0-14.952,4.45a14.232,14.232,0,0,0-5.75,11.85q0,10.5,16.6,15a12.485,12.485,0,0,1,1.2.4q10.593,3.2,10.6,7.2a5.464,5.464,0,0,1-2.2,4.45,9.394,9.394,0,0,1-6,1.75q-8.7,0-18-7l-5.4,8.7a36.188,36.188,0,0,0,11.05,5.9,37.768,37.768,0,0,0,12.052,2.1q8.6,0,14.1-4.55a14.986,14.986,0,0,0,5.5-12.15q0-7.6-5.4-11.2h0Zm42.6-17.1v-9h-14V443.1h-11.2v52.4q0,8.4,5.05,13.35a16.776,16.776,0,0,0,12.2,4.95,19.114,19.114,0,0,0,13.05-5.3l-4.6-7.9q-3.3,3.5-6.9,3.5a7.1,7.1,0,0,1-5.6-2.25,8.741,8.741,0,0,1-2-6.05v-27h14Z" transform="translate(-321 -163)"/>
    <path id="_2" data-name="_" class="cls-2" d="M703.408,352.725V322.558H541.46v30.167H703.408Z" transform="translate(-321 -163)"/>
  </g>
</svg>